<svg 
 xmlns="http://www.w3.org/2000/svg"
 xmlns:xlink="http://www.w3.org/1999/xlink"
 width="1085.71px" height="1458.065px">
<defs>
<filter id="Filter_0">
    <feFlood flood-color="rgb(219, 73, 0)" flood-opacity="1" result="floodOut" />
    <feComposite operator="atop" in="floodOut" in2="SourceGraphic" result="compOut" />
    <feBlend mode="normal" in="compOut" in2="SourceGraphic" />
</filter>

</defs>
<g filter="url(#Filter_0)">
<text kerning="auto" font-family="Myriad Pro" fill="rgb(0, 0, 0)" transform="matrix( 2.02460625890935, 0, 0, 2.02460625890935,-0.12154836731662, 1190.77723357534)" font-size="805px"><tspan font-size="805px" font-family="OCR A Extended" fill="#191919">C</tspan></text>
<path fill-rule="evenodd"  stroke="rgb(168, 255, 0)" stroke-width="270.71px" stroke-linecap="butt" stroke-linejoin="miter" fill-opacity="0" fill="rgb(168, 255, 0)"
 d="M630.305,270.943 C657.212,270.943 679.024,292.756 679.024,319.663 C679.024,346.569 657.212,368.382 630.305,368.382 C603.398,368.382 581.586,346.569 581.586,319.663 C581.586,292.756 603.398,270.943 630.305,270.943 Z"/>
<path fill-rule="evenodd"  stroke="rgb(168, 255, 0)" stroke-width="270.71px" stroke-linecap="butt" stroke-linejoin="miter" fill-opacity="0" fill="rgb(168, 255, 0)"
 d="M630.305,954.331 C657.212,954.331 679.024,976.143 679.024,1003.050 C679.024,1029.957 657.212,1051.769 630.305,1051.769 C603.398,1051.769 581.586,1029.957 581.586,1003.050 C581.586,976.143 603.398,954.331 630.305,954.331 Z"/>
</g>
</svg>